<svg xmlns="http://www.w3.org/2000/svg" viewBox="0 0 403.24 125.34"><defs><style>.cls-1{fill:#231f20;fill-rule:evenodd;}</style></defs><title>syntac-vector</title><g id="Layer_2" data-name="Layer 2"><g id="Layer_1-2" data-name="Layer 1"><path class="cls-1" d="M62.13,0a56.33,56.33,0,0,1,8.5,112c-.35-13.7-4.82-22.84-11.91-28.74a16.55,16.55,0,0,1-2.62-3.74,81,81,0,0,0,5.16-20.87c.52-10.1-3.63-18.73-14.25-23a6.11,6.11,0,0,1,3.28,5.56q-12.78-5.82-25.15-.81-.87-.85-1.67-1.52-4-3.64-10.93-3.73a19.6,19.6,0,0,0,1.87,9,45.44,45.44,0,0,0-8.45,8.21A56.33,56.33,0,0,1,62.13,0Z"/><path class="cls-1" d="M27.9,42.12a6.2,6.2,0,0,1-4.4-1c8.64-4.07,17.47-4.5,26.69,0,0-2.2-1.16-4-3.39-5.55,15.72,5.9,19,20.64,9.29,44Q58.21,85.82,51,89.86,48.16,71.42,31.4,62.54c-13-9.51-19.55-18.7-18.91-27.48,5,0,9.13,1.65,11,3.79a40.79,40.79,0,0,0-8.79-1.44Q17.48,51,35.92,63q14.87,8.89,16.19,23.7,4.15-3.8,1.54-8.15Q64.87,53.82,51.12,39a11.17,11.17,0,0,1,.42,4.61Q38.58,37.16,27.9,42.12Z"/><path class="cls-1" d="M38.7,66.06a7.58,7.58,0,0,0,2,2.16c-3.15.31-4.84,2.43-4.2,4.72.56,2.61,2.9,3.06,5.66.87-1.24,2.57-5.07,4.8-7.5,1.22Q31.38,69.18,38.7,66.06Z"/><path class="cls-1" d="M14.4,44.08c-18,13.19-19,30.48-3.49,50.53q-18-32.68,4.5-48.53Q14.76,44.91,14.4,44.08Z"/><path class="cls-1" d="M25.14,90.76q-14.82-15.1-4.27-30.9-8.2,18.36,7.55,27.52,4.63-4,12.52-2.28-22.62,8.21-13,33.38Q19.56,105.53,25.14,90.76Z"/><path class="cls-1" d="M58.22,82.91Q73.95,94.1,69.75,125.34,69,97.21,58.22,82.91Z"/><path class="cls-1" d="M156.34,26.3c-12.88,0-21.54,6.36-21.54,16.45,0,19.71,29.65,13.59,29.65,24.08,0,3.42-3.1,5.33-8.27,5.33-5.88,0-14-3.26-19.71-8.35l-5,10.25A39.06,39.06,0,0,0,156,82.89c12.32,0,21.78-5.88,21.78-16.77.08-20-29.57-14.31-29.57-24.56,0-3,2.86-4.53,7.07-4.53,4.45,0,11.45,2.23,17.33,5.72l4.85-10.41a39.77,39.77,0,0,0-21.14-6Zm69.54,13.43H213.64L203.55,69.14,192.34,39.73H179.7l17.72,41.89L196.24,84a5.93,5.93,0,0,1-5.64,3.82,8.31,8.31,0,0,1-5.56-2.3l-5.17,8.82a17.2,17.2,0,0,0,11.6,4.13c7.39,0,12.64-3.66,15.66-11.21l18.76-47.53Zm32.67-.48c-6.68.08-11.76,2.62-14.78,7.95V39.73H231.53V82.49h12.24V61.43c0-6.28,3.66-10.89,9.78-11,5.25,0,8.42,3.34,8.42,8.74V82.49h12.24V55.63c0-10-6.12-16.37-15.66-16.37ZM308.7,71.13A14.22,14.22,0,0,1,303,72.72c-2.62.08-4.13-1.35-4.13-4.93V50.15h11.6v-8.5h-11.6V29.88H286.68V41.64h-6v8.42h6V69.86c0,8.82,5.8,13.19,13.43,13.19a22.77,22.77,0,0,0,11.13-2.94l-2.54-9Zm34.75,11.37h12l-.08-27.9c-.08-9.62-6.69-15.34-18.15-15.34-7.47,0-13,1.75-19.31,4.93l3.82,8.42a27.07,27.07,0,0,1,12.72-3.74c5.89,0,8.91,2.62,8.91,7.15v.79H331.59c-10.49.08-16.29,4.85-16.29,12.88,0,7.79,5.56,13.35,14.7,13.35,6,0,10.58-2,13.45-5.56v5Zm-10-8.19c-4.13,0-6.68-2.15-6.68-5.4,0-3.42,2.3-4.85,7-4.85h9.63v3.82c-.72,3.66-4.77,6.44-9.95,6.44Zm50.87-35c-13.11,0-21.94,8.82-21.94,21.94,0,13,8.82,21.7,21.78,21.7,8.74,0,15.42-3.5,19-9.46l-8.42-5.72c-2.15,3.34-5.56,5-9.93,5-6,0-10.17-4.69-10.17-11.6s4.21-11.44,10.17-11.44a11.79,11.79,0,0,1,9.78,4.53l8.27-6C399,42.6,392.47,39.34,384.29,39.34Z"/><path class="cls-1" d="M295.76,90.74c-5.46,0-9.11,2.67-9.11,6.81,0,9.45,14.83,5.76,14.79,12.68,0,2.52-2.37,4.06-6.17,4.06a13.1,13.1,0,0,1-8.77-3.73l-1.35,2.71a15,15,0,0,0,10.09,4c5.64,0,9.52-2.82,9.52-7.23,0-9.56-14.79-6-14.79-12.79,0-2.22,2.22-3.5,5.61-3.5A13.61,13.61,0,0,1,302.84,96l1.28-2.82a15.58,15.58,0,0,0-8.35-2.45Zm24.16,22.73a6,6,0,0,1-3.16,1c-1.69,0-2.63-.9-2.63-3.31V100.36h6.28V97.95l-6.28,0V92.76h-2.9V98h-2.86v2.38h2.86V111.7c0,3.91,2.14,5.64,5,5.64a8.29,8.29,0,0,0,4.48-1.51l-.83-2.37Zm22.47-16.11h-2.94v9.75c0,4.21-2.41,7.19-6.51,7.26-3.42,0-5.49-2.07-5.49-5.57V97.36h-2.94v12.23c0,4.78,2.78,7.71,7.41,7.71,3.57,0,6.21-1.51,7.53-4.59v4.48h2.94V97.36Zm25.36-8.09h-2.94v12.38a8.29,8.29,0,0,0-7.75-4.44c-5.61,0-9.52,4.1-9.52,10s3.91,10.09,9.56,10.09a8.27,8.27,0,0,0,7.71-4.4v4.25h2.94V89.27Zm-10.09,25.44a7,7,0,0,1-7.19-7.38c0-4.33,3-7.45,7.19-7.45s7.15,3.12,7.15,7.45a7,7,0,0,1-7.15,7.38Zm18.85-25.06a2,2,0,1,0,1.92,2,1.93,1.93,0,0,0-1.92-2ZM378,117.19V97.36h-2.9v19.83Zm15.2-19.91c-5.87,0-10,4.06-10,10a10,10,0,0,0,20.1,0c0-5.91-4.18-10-10-10Zm0,2.67c4.14,0,7.11,3,7.11,7.34s-3,7.38-7.11,7.38-7.11-3-7.11-7.38S389.05,100,393.19,100Z"/></g></g></svg>